# xmcd
#
# Track frame offsets: 
#        150
#        25890
#        48731
#        68114
#        94920
#        114478
#        136703
#        155599
#        190976
#        207122
#        214888
#
# Disc length: 3227 seconds
#
# Revision: 0
# Processed by: cddbd v1.4PL0 Copyright (c) Steve Scherf et al.
# Submitted via: ExactAudioCopy v0.90b4
#
DISCID=9e0c990b
DTITLE=Walter Trout Band - Prisoner Of A Dream
DYEAR=1990
DGENRE=Blues
TTITLE0=Prisoner Of A Dream
TTITLE1=The Love That We Once Knew
TTITLE2=Sweet As A Flower
TTITLE3=Love In Vain
TTITLE4=Victor The Cajun
TTITLE5=Girl From The North Country
TTITLE6=False Alarm
TTITLE7=Say Goodbye To The Blues
TTITLE8=You're The One
TTITLE9=Earring On The Table
TTITLE10=Tribute To Muddy Waters
EXTD=
EXTT0=
EXTT1=
EXTT2=
EXTT3=
EXTT4=
EXTT5=
EXTT6=
EXTT7=
EXTT8=
EXTT9=
EXTT10=
PLAYORDER=
